<mxfile host="app.diagrams.net" agent="Mozilla/5.0 (Windows NT 10.0; Win64; x64; rv:131.0) Gecko/20100101 Firefox/131.0" version="24.7.17">
  <diagram name="Page-1" id="HuaGfdDcAbAVN-yNJY32">
    <mxGraphModel dx="1122" dy="485" grid="1" gridSize="10" guides="1" tooltips="1" connect="1" arrows="1" fold="1" page="1" pageScale="1" pageWidth="850" pageHeight="1100" math="0" shadow="0">
      <root>
        <mxCell id="0" />
        <mxCell id="1" parent="0" />
        <mxCell id="Ga4jy29pLMReFvIaW5Hz-2" value="Chi nhánh" style="rounded=0;whiteSpace=wrap;html=1;" parent="1" vertex="1">
          <mxGeometry x="160" y="200" width="80" height="40" as="geometry" />
        </mxCell>
        <mxCell id="Ga4jy29pLMReFvIaW5Hz-3" value="Nhân viên" style="rounded=0;whiteSpace=wrap;html=1;" parent="1" vertex="1">
          <mxGeometry x="160" y="440" width="80" height="40" as="geometry" />
        </mxCell>
        <mxCell id="Ga4jy29pLMReFvIaW5Hz-4" value="Thuộc" style="shape=rhombus;perimeter=rhombusPerimeter;whiteSpace=wrap;html=1;align=center;" parent="1" vertex="1">
          <mxGeometry x="160" y="320" width="80" height="40" as="geometry" />
        </mxCell>
        <mxCell id="Ga4jy29pLMReFvIaW5Hz-5" value="" style="fontSize=12;html=1;endArrow=ERoneToMany;rounded=0;exitX=0.5;exitY=1;exitDx=0;exitDy=0;entryX=0.5;entryY=0;entryDx=0;entryDy=0;" parent="1" source="Ga4jy29pLMReFvIaW5Hz-4" target="Ga4jy29pLMReFvIaW5Hz-3" edge="1">
          <mxGeometry width="100" height="100" relative="1" as="geometry">
            <mxPoint x="210" y="420" as="sourcePoint" />
            <mxPoint x="330" y="360" as="targetPoint" />
          </mxGeometry>
        </mxCell>
        <mxCell id="Ga4jy29pLMReFvIaW5Hz-7" value="" style="endArrow=none;html=1;rounded=0;entryX=0.5;entryY=0;entryDx=0;entryDy=0;exitX=0.5;exitY=1;exitDx=0;exitDy=0;" parent="1" source="Ga4jy29pLMReFvIaW5Hz-2" target="Ga4jy29pLMReFvIaW5Hz-4" edge="1">
          <mxGeometry relative="1" as="geometry">
            <mxPoint x="200" y="270" as="sourcePoint" />
            <mxPoint x="280" y="270" as="targetPoint" />
          </mxGeometry>
        </mxCell>
        <mxCell id="Ga4jy29pLMReFvIaW5Hz-9" value="" style="endArrow=none;html=1;rounded=0;entryX=0.5;entryY=0;entryDx=0;entryDy=0;exitX=0.5;exitY=1;exitDx=0;exitDy=0;" parent="1" target="Ga4jy29pLMReFvIaW5Hz-2" edge="1">
          <mxGeometry relative="1" as="geometry">
            <mxPoint x="199.75" y="160" as="sourcePoint" />
            <mxPoint x="199.75" y="240" as="targetPoint" />
          </mxGeometry>
        </mxCell>
        <mxCell id="Ga4jy29pLMReFvIaW5Hz-10" value="MCN" style="ellipse;whiteSpace=wrap;html=1;align=center;fontStyle=4;" parent="1" vertex="1">
          <mxGeometry x="180" y="130" width="40" height="30" as="geometry" />
        </mxCell>
        <mxCell id="Ga4jy29pLMReFvIaW5Hz-11" value="Tên" style="ellipse;whiteSpace=wrap;html=1;align=center;" parent="1" vertex="1">
          <mxGeometry x="120" y="140" width="40" height="30" as="geometry" />
        </mxCell>
        <mxCell id="Ga4jy29pLMReFvIaW5Hz-12" value="Địa chỉ" style="ellipse;whiteSpace=wrap;html=1;align=center;" parent="1" vertex="1">
          <mxGeometry x="70" y="180" width="40" height="30" as="geometry" />
        </mxCell>
        <mxCell id="Ga4jy29pLMReFvIaW5Hz-13" value="SDT" style="ellipse;shape=doubleEllipse;margin=3;whiteSpace=wrap;html=1;align=center;" parent="1" vertex="1">
          <mxGeometry x="70" y="230" width="35" height="30" as="geometry" />
        </mxCell>
        <mxCell id="Ga4jy29pLMReFvIaW5Hz-14" value="" style="endArrow=none;html=1;rounded=0;entryX=0.25;entryY=0;entryDx=0;entryDy=0;exitX=1;exitY=1;exitDx=0;exitDy=0;" parent="1" source="Ga4jy29pLMReFvIaW5Hz-11" target="Ga4jy29pLMReFvIaW5Hz-2" edge="1">
          <mxGeometry relative="1" as="geometry">
            <mxPoint x="150" y="170" as="sourcePoint" />
            <mxPoint x="150.25" y="220" as="targetPoint" />
          </mxGeometry>
        </mxCell>
        <mxCell id="Ga4jy29pLMReFvIaW5Hz-15" value="" style="endArrow=none;html=1;rounded=0;entryX=0;entryY=0.25;entryDx=0;entryDy=0;exitX=0.5;exitY=1;exitDx=0;exitDy=0;" parent="1" target="Ga4jy29pLMReFvIaW5Hz-2" edge="1">
          <mxGeometry relative="1" as="geometry">
            <mxPoint x="110" y="200" as="sourcePoint" />
            <mxPoint x="110.25" y="250" as="targetPoint" />
          </mxGeometry>
        </mxCell>
        <mxCell id="Ga4jy29pLMReFvIaW5Hz-16" value="" style="endArrow=none;html=1;rounded=0;entryX=0;entryY=0.75;entryDx=0;entryDy=0;exitX=1;exitY=0.5;exitDx=0;exitDy=0;" parent="1" source="Ga4jy29pLMReFvIaW5Hz-13" target="Ga4jy29pLMReFvIaW5Hz-2" edge="1">
          <mxGeometry relative="1" as="geometry">
            <mxPoint x="105" y="250" as="sourcePoint" />
            <mxPoint x="105.25" y="300" as="targetPoint" />
          </mxGeometry>
        </mxCell>
        <mxCell id="Ga4jy29pLMReFvIaW5Hz-17" value="Họ" style="ellipse;whiteSpace=wrap;html=1;align=center;" parent="1" vertex="1">
          <mxGeometry x="100" y="410" width="30" height="20" as="geometry" />
        </mxCell>
        <mxCell id="Ga4jy29pLMReFvIaW5Hz-18" value="Tên" style="ellipse;whiteSpace=wrap;html=1;align=center;" parent="1" vertex="1">
          <mxGeometry x="140" y="390" width="30" height="20" as="geometry" />
        </mxCell>
        <mxCell id="Ga4jy29pLMReFvIaW5Hz-19" value="Địa chỉ" style="ellipse;whiteSpace=wrap;html=1;align=center;" parent="1" vertex="1">
          <mxGeometry x="65" y="440" width="40" height="25" as="geometry" />
        </mxCell>
        <mxCell id="Ga4jy29pLMReFvIaW5Hz-20" value="MNV" style="ellipse;whiteSpace=wrap;html=1;align=center;fontStyle=4;" parent="1" vertex="1">
          <mxGeometry x="80" y="480" width="40" height="30" as="geometry" />
        </mxCell>
        <mxCell id="Ga4jy29pLMReFvIaW5Hz-21" value="Gioi tinh" style="ellipse;whiteSpace=wrap;html=1;align=center;" parent="1" vertex="1">
          <mxGeometry x="700" y="150" width="50" height="30" as="geometry" />
        </mxCell>
        <mxCell id="Ga4jy29pLMReFvIaW5Hz-22" value="SDT" style="ellipse;shape=doubleEllipse;margin=3;whiteSpace=wrap;html=1;align=center;" parent="1" vertex="1">
          <mxGeometry x="260" y="385" width="40" height="30" as="geometry" />
        </mxCell>
        <mxCell id="Ga4jy29pLMReFvIaW5Hz-23" value="" style="endArrow=none;html=1;rounded=0;entryX=0;entryY=0.75;entryDx=0;entryDy=0;exitX=1;exitY=0.5;exitDx=0;exitDy=0;" parent="1" target="Ga4jy29pLMReFvIaW5Hz-3" edge="1">
          <mxGeometry relative="1" as="geometry">
            <mxPoint x="120" y="492" as="sourcePoint" />
            <mxPoint x="175" y="480" as="targetPoint" />
          </mxGeometry>
        </mxCell>
        <mxCell id="Ga4jy29pLMReFvIaW5Hz-24" value="" style="endArrow=none;html=1;rounded=0;entryX=0;entryY=0.5;entryDx=0;entryDy=0;exitX=1;exitY=0.5;exitDx=0;exitDy=0;" parent="1" target="Ga4jy29pLMReFvIaW5Hz-3" edge="1">
          <mxGeometry relative="1" as="geometry">
            <mxPoint x="105" y="452" as="sourcePoint" />
            <mxPoint x="160" y="440" as="targetPoint" />
          </mxGeometry>
        </mxCell>
        <mxCell id="Ga4jy29pLMReFvIaW5Hz-25" value="" style="endArrow=none;html=1;rounded=0;entryX=0;entryY=0.25;entryDx=0;entryDy=0;exitX=1;exitY=0.5;exitDx=0;exitDy=0;" parent="1" target="Ga4jy29pLMReFvIaW5Hz-3" edge="1">
          <mxGeometry relative="1" as="geometry">
            <mxPoint x="120" y="430" as="sourcePoint" />
            <mxPoint x="175" y="418" as="targetPoint" />
          </mxGeometry>
        </mxCell>
        <mxCell id="Ga4jy29pLMReFvIaW5Hz-26" value="" style="endArrow=none;html=1;rounded=0;entryX=0;entryY=1;entryDx=0;entryDy=0;exitX=0.75;exitY=0;exitDx=0;exitDy=0;" parent="1" source="Ga4jy29pLMReFvIaW5Hz-3" target="Ga4jy29pLMReFvIaW5Hz-22" edge="1">
          <mxGeometry relative="1" as="geometry">
            <mxPoint x="200" y="432" as="sourcePoint" />
            <mxPoint x="255" y="420" as="targetPoint" />
          </mxGeometry>
        </mxCell>
        <mxCell id="Ga4jy29pLMReFvIaW5Hz-27" value="" style="endArrow=none;html=1;rounded=0;entryX=0.25;entryY=0;entryDx=0;entryDy=0;exitX=1;exitY=0.5;exitDx=0;exitDy=0;" parent="1" target="Ga4jy29pLMReFvIaW5Hz-3" edge="1">
          <mxGeometry relative="1" as="geometry">
            <mxPoint x="160" y="410" as="sourcePoint" />
            <mxPoint x="215" y="398" as="targetPoint" />
          </mxGeometry>
        </mxCell>
        <mxCell id="Ga4jy29pLMReFvIaW5Hz-28" value="" style="endArrow=none;html=1;rounded=0;entryX=0;entryY=0.75;entryDx=0;entryDy=0;" parent="1" edge="1">
          <mxGeometry relative="1" as="geometry">
            <mxPoint x="150" y="520" as="sourcePoint" />
            <mxPoint x="175" y="480" as="targetPoint" />
          </mxGeometry>
        </mxCell>
        <mxCell id="Ga4jy29pLMReFvIaW5Hz-29" value="&lt;font style=&quot;font-size: 11px;&quot;&gt;Ngày tham gia&lt;/font&gt;" style="ellipse;whiteSpace=wrap;html=1;align=center;" parent="1" vertex="1">
          <mxGeometry x="190" y="510" width="60" height="40" as="geometry" />
        </mxCell>
        <mxCell id="Ga4jy29pLMReFvIaW5Hz-30" value="Thâm niên" style="ellipse;whiteSpace=wrap;html=1;align=center;dashed=1;" parent="1" vertex="1">
          <mxGeometry x="280" y="480" width="60" height="40" as="geometry" />
        </mxCell>
        <mxCell id="Ga4jy29pLMReFvIaW5Hz-31" value="" style="endArrow=none;html=1;rounded=0;entryX=0.544;entryY=1.013;entryDx=0;entryDy=0;entryPerimeter=0;" parent="1" source="Ga4jy29pLMReFvIaW5Hz-29" target="Ga4jy29pLMReFvIaW5Hz-3" edge="1">
          <mxGeometry relative="1" as="geometry">
            <mxPoint x="190" y="499.5" as="sourcePoint" />
            <mxPoint x="230" y="470.5" as="targetPoint" />
          </mxGeometry>
        </mxCell>
        <mxCell id="Ga4jy29pLMReFvIaW5Hz-32" value="" style="endArrow=none;html=1;rounded=0;entryX=1;entryY=0.75;entryDx=0;entryDy=0;exitX=-0.017;exitY=0.4;exitDx=0;exitDy=0;exitPerimeter=0;" parent="1" source="Ga4jy29pLMReFvIaW5Hz-30" edge="1" target="Ga4jy29pLMReFvIaW5Hz-3">
          <mxGeometry relative="1" as="geometry">
            <mxPoint x="200" y="494" as="sourcePoint" />
            <mxPoint x="240" y="465" as="targetPoint" />
          </mxGeometry>
        </mxCell>
        <mxCell id="Ga4jy29pLMReFvIaW5Hz-33" value="Năm sinh" style="ellipse;whiteSpace=wrap;html=1;align=center;" parent="1" vertex="1">
          <mxGeometry x="290" y="420" width="50" height="30" as="geometry" />
        </mxCell>
        <mxCell id="Ga4jy29pLMReFvIaW5Hz-34" value="" style="endArrow=none;html=1;rounded=0;exitX=1;exitY=0.25;exitDx=0;exitDy=0;" parent="1" source="Ga4jy29pLMReFvIaW5Hz-3" edge="1">
          <mxGeometry relative="1" as="geometry">
            <mxPoint x="290" y="500" as="sourcePoint" />
            <mxPoint x="290" y="440" as="targetPoint" />
          </mxGeometry>
        </mxCell>
        <mxCell id="Ga4jy29pLMReFvIaW5Hz-36" value="Khách hàng" style="whiteSpace=wrap;html=1;align=center;" parent="1" vertex="1">
          <mxGeometry x="600" y="200" width="80" height="40" as="geometry" />
        </mxCell>
        <mxCell id="Ga4jy29pLMReFvIaW5Hz-37" value="Tài khoản" style="whiteSpace=wrap;html=1;align=center;" parent="1" vertex="1">
          <mxGeometry x="600" y="440" width="80" height="40" as="geometry" />
        </mxCell>
        <mxCell id="Ga4jy29pLMReFvIaW5Hz-39" value="" style="endArrow=none;html=1;rounded=0;entryX=0.5;entryY=0;entryDx=0;entryDy=0;exitX=0.5;exitY=1;exitDx=0;exitDy=0;" parent="1" edge="1">
          <mxGeometry relative="1" as="geometry">
            <mxPoint x="639.75" y="240" as="sourcePoint" />
            <mxPoint x="639.75" y="320" as="targetPoint" />
          </mxGeometry>
        </mxCell>
        <mxCell id="Ga4jy29pLMReFvIaW5Hz-41" value="" style="fontSize=12;html=1;endArrow=ERoneToMany;rounded=0;exitX=0.5;exitY=1;exitDx=0;exitDy=0;entryX=0.5;entryY=0;entryDx=0;entryDy=0;" parent="1" edge="1">
          <mxGeometry width="100" height="100" relative="1" as="geometry">
            <mxPoint x="639.75" y="360" as="sourcePoint" />
            <mxPoint x="639.75" y="440" as="targetPoint" />
          </mxGeometry>
        </mxCell>
        <mxCell id="Ga4jy29pLMReFvIaW5Hz-42" value="Họ" style="ellipse;whiteSpace=wrap;html=1;align=center;" parent="1" vertex="1">
          <mxGeometry x="535" y="150" width="30" height="20" as="geometry" />
        </mxCell>
        <mxCell id="Ga4jy29pLMReFvIaW5Hz-43" value="Tên" style="ellipse;whiteSpace=wrap;html=1;align=center;" parent="1" vertex="1">
          <mxGeometry x="535" y="180" width="30" height="20" as="geometry" />
        </mxCell>
        <mxCell id="Ga4jy29pLMReFvIaW5Hz-44" value="Địa chỉ" style="ellipse;whiteSpace=wrap;html=1;align=center;" parent="1" vertex="1">
          <mxGeometry x="535" y="250" width="40" height="25" as="geometry" />
        </mxCell>
        <mxCell id="Ga4jy29pLMReFvIaW5Hz-45" value="SDT" style="ellipse;shape=doubleEllipse;margin=3;whiteSpace=wrap;html=1;align=center;" parent="1" vertex="1">
          <mxGeometry x="575" y="150" width="40" height="30" as="geometry" />
        </mxCell>
        <mxCell id="Ga4jy29pLMReFvIaW5Hz-46" value="Gioi tinh" style="ellipse;whiteSpace=wrap;html=1;align=center;" parent="1" vertex="1">
          <mxGeometry x="125" y="520" width="50" height="30" as="geometry" />
        </mxCell>
        <mxCell id="Ga4jy29pLMReFvIaW5Hz-47" value="" style="endArrow=none;html=1;rounded=0;entryX=0.313;entryY=-0.012;entryDx=0;entryDy=0;exitX=1;exitY=1;exitDx=0;exitDy=0;entryPerimeter=0;" parent="1" target="Ga4jy29pLMReFvIaW5Hz-36" edge="1">
          <mxGeometry relative="1" as="geometry">
            <mxPoint x="600" y="180" as="sourcePoint" />
            <mxPoint x="626" y="224" as="targetPoint" />
          </mxGeometry>
        </mxCell>
        <mxCell id="Ga4jy29pLMReFvIaW5Hz-48" value="" style="endArrow=none;html=1;rounded=0;exitX=1;exitY=1;exitDx=0;exitDy=0;" parent="1" source="Ga4jy29pLMReFvIaW5Hz-42" edge="1">
          <mxGeometry relative="1" as="geometry">
            <mxPoint x="560" y="200" as="sourcePoint" />
            <mxPoint x="610" y="200" as="targetPoint" />
          </mxGeometry>
        </mxCell>
        <mxCell id="Ga4jy29pLMReFvIaW5Hz-51" value="" style="endArrow=none;html=1;rounded=0;exitX=1;exitY=1;exitDx=0;exitDy=0;entryX=0;entryY=0.25;entryDx=0;entryDy=0;" parent="1" source="Ga4jy29pLMReFvIaW5Hz-43" target="Ga4jy29pLMReFvIaW5Hz-36" edge="1">
          <mxGeometry relative="1" as="geometry">
            <mxPoint x="550" y="223" as="sourcePoint" />
            <mxPoint x="600" y="230" as="targetPoint" />
          </mxGeometry>
        </mxCell>
        <mxCell id="Ga4jy29pLMReFvIaW5Hz-52" value="" style="endArrow=none;html=1;rounded=0;exitX=1;exitY=1;exitDx=0;exitDy=0;entryX=0.175;entryY=1.017;entryDx=0;entryDy=0;entryPerimeter=0;" parent="1" target="Ga4jy29pLMReFvIaW5Hz-36" edge="1">
          <mxGeometry relative="1" as="geometry">
            <mxPoint x="575" y="260" as="sourcePoint" />
            <mxPoint x="610" y="250" as="targetPoint" />
          </mxGeometry>
        </mxCell>
        <mxCell id="Ga4jy29pLMReFvIaW5Hz-53" value="" style="endArrow=none;html=1;rounded=0;entryX=0.806;entryY=0.017;entryDx=0;entryDy=0;exitX=0;exitY=1;exitDx=0;exitDy=0;entryPerimeter=0;" parent="1" source="Ga4jy29pLMReFvIaW5Hz-21" target="Ga4jy29pLMReFvIaW5Hz-36" edge="1">
          <mxGeometry relative="1" as="geometry">
            <mxPoint x="724" y="180" as="sourcePoint" />
            <mxPoint x="750" y="224" as="targetPoint" />
          </mxGeometry>
        </mxCell>
        <mxCell id="Ga4jy29pLMReFvIaW5Hz-54" value="MKH" style="ellipse;whiteSpace=wrap;html=1;align=center;fontStyle=4;" parent="1" vertex="1">
          <mxGeometry x="730" y="200" width="40" height="30" as="geometry" />
        </mxCell>
        <mxCell id="Ga4jy29pLMReFvIaW5Hz-55" value="" style="endArrow=none;html=1;rounded=0;entryX=1;entryY=0.5;entryDx=0;entryDy=0;exitX=0;exitY=0.5;exitDx=0;exitDy=0;" parent="1" source="Ga4jy29pLMReFvIaW5Hz-54" target="Ga4jy29pLMReFvIaW5Hz-36" edge="1">
          <mxGeometry relative="1" as="geometry">
            <mxPoint x="723" y="190" as="sourcePoint" />
            <mxPoint x="680" y="225" as="targetPoint" />
          </mxGeometry>
        </mxCell>
        <mxCell id="Ga4jy29pLMReFvIaW5Hz-56" value="Email" style="ellipse;whiteSpace=wrap;html=1;align=center;" parent="1" vertex="1">
          <mxGeometry x="700" y="245" width="50" height="30" as="geometry" />
        </mxCell>
        <mxCell id="Ga4jy29pLMReFvIaW5Hz-58" value="" style="endArrow=none;html=1;rounded=0;exitX=1;exitY=1;exitDx=0;exitDy=0;entryX=0;entryY=0.5;entryDx=0;entryDy=0;" parent="1" target="Ga4jy29pLMReFvIaW5Hz-56" edge="1">
          <mxGeometry relative="1" as="geometry">
            <mxPoint x="665" y="240" as="sourcePoint" />
            <mxPoint x="700" y="219" as="targetPoint" />
          </mxGeometry>
        </mxCell>
        <mxCell id="Ga4jy29pLMReFvIaW5Hz-60" value="Thuộc" style="shape=rhombus;perimeter=rhombusPerimeter;whiteSpace=wrap;html=1;align=center;" parent="1" vertex="1">
          <mxGeometry x="360" y="200" width="80" height="40" as="geometry" />
        </mxCell>
        <mxCell id="Ga4jy29pLMReFvIaW5Hz-62" value="" style="endArrow=none;html=1;rounded=0;entryX=0;entryY=0.5;entryDx=0;entryDy=0;exitX=0.5;exitY=1;exitDx=0;exitDy=0;" parent="1" target="Ga4jy29pLMReFvIaW5Hz-60" edge="1">
          <mxGeometry relative="1" as="geometry">
            <mxPoint x="239.5" y="220" as="sourcePoint" />
            <mxPoint x="239.5" y="300" as="targetPoint" />
          </mxGeometry>
        </mxCell>
        <mxCell id="Ga4jy29pLMReFvIaW5Hz-63" value="" style="fontSize=12;html=1;endArrow=ERoneToMany;rounded=0;entryX=0;entryY=0.5;entryDx=0;entryDy=0;" parent="1" target="Ga4jy29pLMReFvIaW5Hz-69" edge="1">
          <mxGeometry width="100" height="100" relative="1" as="geometry">
            <mxPoint x="400" y="280" as="sourcePoint" />
            <mxPoint x="430" y="340" as="targetPoint" />
            <Array as="points">
              <mxPoint x="400" y="240" />
              <mxPoint x="400" y="280" />
              <mxPoint x="400" y="340" />
            </Array>
          </mxGeometry>
        </mxCell>
        <mxCell id="Ga4jy29pLMReFvIaW5Hz-65" value="Năm sinh" style="ellipse;whiteSpace=wrap;html=1;align=center;" parent="1" vertex="1">
          <mxGeometry x="660" y="275" width="50" height="30" as="geometry" />
        </mxCell>
        <mxCell id="Ga4jy29pLMReFvIaW5Hz-66" value="" style="endArrow=none;html=1;rounded=0;exitX=1;exitY=1;exitDx=0;exitDy=0;entryX=0.33;entryY=0.033;entryDx=0;entryDy=0;entryPerimeter=0;" parent="1" target="Ga4jy29pLMReFvIaW5Hz-65" edge="1">
          <mxGeometry relative="1" as="geometry">
            <mxPoint x="650" y="240" as="sourcePoint" />
            <mxPoint x="685" y="260" as="targetPoint" />
          </mxGeometry>
        </mxCell>
        <mxCell id="Ga4jy29pLMReFvIaW5Hz-68" value="STK" style="ellipse;whiteSpace=wrap;html=1;align=center;fontStyle=4;" parent="1" vertex="1">
          <mxGeometry x="680" y="390" width="40" height="30" as="geometry" />
        </mxCell>
        <mxCell id="Ga4jy29pLMReFvIaW5Hz-69" value="Sở hữu" style="shape=associativeEntity;whiteSpace=wrap;html=1;align=center;" parent="1" vertex="1">
          <mxGeometry x="600" y="320" width="80" height="40" as="geometry" />
        </mxCell>
        <mxCell id="Ga4jy29pLMReFvIaW5Hz-70" value="&lt;font style=&quot;font-size: 10px;&quot;&gt;Ngày mở tài khoản&lt;br&gt;&lt;/font&gt;" style="ellipse;whiteSpace=wrap;html=1;align=center;" parent="1" vertex="1">
          <mxGeometry x="530" y="395" width="70" height="30" as="geometry" />
        </mxCell>
        <mxCell id="Ga4jy29pLMReFvIaW5Hz-73" value="" style="endArrow=none;html=1;rounded=0;" parent="1" edge="1">
          <mxGeometry relative="1" as="geometry">
            <mxPoint x="480" y="220" as="sourcePoint" />
            <mxPoint x="480" y="660" as="targetPoint" />
          </mxGeometry>
        </mxCell>
        <mxCell id="Ga4jy29pLMReFvIaW5Hz-76" value="Tài khoản vay" style="whiteSpace=wrap;html=1;align=center;" parent="1" vertex="1">
          <mxGeometry x="160" y="640" width="80" height="40" as="geometry" />
        </mxCell>
        <mxCell id="Ga4jy29pLMReFvIaW5Hz-77" value="Log giao dịch" style="whiteSpace=wrap;html=1;align=center;" parent="1" vertex="1">
          <mxGeometry x="360" width="80" height="40" as="geometry" />
        </mxCell>
        <mxCell id="Ga4jy29pLMReFvIaW5Hz-78" value="Tài khoản gửi, nhận" style="whiteSpace=wrap;html=1;align=center;" parent="1" vertex="1">
          <mxGeometry x="680" y="640" width="80" height="40" as="geometry" />
        </mxCell>
        <mxCell id="Ga4jy29pLMReFvIaW5Hz-80" value="" style="endArrow=none;html=1;rounded=0;exitX=0.929;exitY=0.767;exitDx=0;exitDy=0;entryX=0.25;entryY=0;entryDx=0;entryDy=0;exitPerimeter=0;" parent="1" source="Ga4jy29pLMReFvIaW5Hz-70" target="Ga4jy29pLMReFvIaW5Hz-37" edge="1">
          <mxGeometry relative="1" as="geometry">
            <mxPoint x="565" y="425" as="sourcePoint" />
            <mxPoint x="505.25" y="455" as="targetPoint" />
          </mxGeometry>
        </mxCell>
        <mxCell id="Ga4jy29pLMReFvIaW5Hz-81" value="" style="endArrow=none;html=1;rounded=0;exitX=0.75;exitY=0;exitDx=0;exitDy=0;" parent="1" source="Ga4jy29pLMReFvIaW5Hz-37" edge="1">
          <mxGeometry relative="1" as="geometry">
            <mxPoint x="754.88" y="450" as="sourcePoint" />
            <mxPoint x="695.13" y="420" as="targetPoint" />
          </mxGeometry>
        </mxCell>
        <mxCell id="Ga4jy29pLMReFvIaW5Hz-82" value="" style="endArrow=none;html=1;rounded=0;" parent="1" edge="1">
          <mxGeometry relative="1" as="geometry">
            <mxPoint x="660" y="520" as="sourcePoint" />
            <mxPoint x="660" y="480" as="targetPoint" />
          </mxGeometry>
        </mxCell>
        <mxCell id="Ga4jy29pLMReFvIaW5Hz-83" value="Ngày vay" style="ellipse;whiteSpace=wrap;html=1;align=center;" parent="1" vertex="1">
          <mxGeometry x="260" y="740" width="70" height="30" as="geometry" />
        </mxCell>
        <mxCell id="Ga4jy29pLMReFvIaW5Hz-84" value="Trạng thái" style="ellipse;whiteSpace=wrap;html=1;align=center;" parent="1" vertex="1">
          <mxGeometry x="115" y="585" width="70" height="30" as="geometry" />
        </mxCell>
        <mxCell id="MXuPHkKdwVomBoaFRUYh-1" value="Số tiền vay" style="ellipse;whiteSpace=wrap;html=1;align=center;" vertex="1" parent="1">
          <mxGeometry x="267.5" y="810" width="55" height="30" as="geometry" />
        </mxCell>
        <mxCell id="MXuPHkKdwVomBoaFRUYh-2" value="Mã vay" style="ellipse;whiteSpace=wrap;html=1;align=center;fontStyle=4;" vertex="1" parent="1">
          <mxGeometry x="200" y="580" width="40" height="30" as="geometry" />
        </mxCell>
        <mxCell id="MXuPHkKdwVomBoaFRUYh-4" value="" style="endArrow=none;html=1;rounded=0;entryX=0;entryY=0.75;entryDx=0;entryDy=0;exitX=0.575;exitY=0;exitDx=0;exitDy=0;exitPerimeter=0;" edge="1" parent="1" source="Ga4jy29pLMReFvIaW5Hz-76">
          <mxGeometry relative="1" as="geometry">
            <mxPoint x="195" y="650" as="sourcePoint" />
            <mxPoint x="220" y="610" as="targetPoint" />
          </mxGeometry>
        </mxCell>
        <mxCell id="MXuPHkKdwVomBoaFRUYh-5" value="" style="endArrow=none;html=1;rounded=0;entryX=0;entryY=0.75;entryDx=0;entryDy=0;exitX=0.331;exitY=0.013;exitDx=0;exitDy=0;exitPerimeter=0;" edge="1" parent="1" source="Ga4jy29pLMReFvIaW5Hz-76">
          <mxGeometry relative="1" as="geometry">
            <mxPoint x="125" y="655" as="sourcePoint" />
            <mxPoint x="150" y="615" as="targetPoint" />
          </mxGeometry>
        </mxCell>
        <mxCell id="MXuPHkKdwVomBoaFRUYh-6" value="" style="endArrow=none;html=1;rounded=0;exitX=0;exitY=0.5;exitDx=0;exitDy=0;" edge="1" parent="1" source="Ga4jy29pLMReFvIaW5Hz-83">
          <mxGeometry relative="1" as="geometry">
            <mxPoint x="409.99999999999864" y="880" as="sourcePoint" />
            <mxPoint x="240" y="781" as="targetPoint" />
          </mxGeometry>
        </mxCell>
        <mxCell id="MXuPHkKdwVomBoaFRUYh-7" value="" style="endArrow=none;html=1;rounded=0;entryX=0;entryY=0.5;entryDx=0;entryDy=0;" edge="1" parent="1" target="MXuPHkKdwVomBoaFRUYh-1">
          <mxGeometry relative="1" as="geometry">
            <mxPoint x="237.5" y="790" as="sourcePoint" />
            <mxPoint x="260" y="770" as="targetPoint" />
          </mxGeometry>
        </mxCell>
        <mxCell id="MXuPHkKdwVomBoaFRUYh-8" value="Sở hữu" style="shape=rhombus;perimeter=rhombusPerimeter;whiteSpace=wrap;html=1;align=center;" vertex="1" parent="1">
          <mxGeometry x="360" y="640" width="80" height="40" as="geometry" />
        </mxCell>
        <mxCell id="MXuPHkKdwVomBoaFRUYh-12" value="" style="endArrow=none;html=1;rounded=0;" edge="1" parent="1">
          <mxGeometry relative="1" as="geometry">
            <mxPoint x="480" y="660" as="sourcePoint" />
            <mxPoint x="440" y="660" as="targetPoint" />
          </mxGeometry>
        </mxCell>
        <mxCell id="MXuPHkKdwVomBoaFRUYh-13" value="" style="endArrow=none;html=1;rounded=0;exitX=0;exitY=0.5;exitDx=0;exitDy=0;" edge="1" parent="1" source="MXuPHkKdwVomBoaFRUYh-8">
          <mxGeometry relative="1" as="geometry">
            <mxPoint x="440" y="660" as="sourcePoint" />
            <mxPoint x="240" y="660" as="targetPoint" />
          </mxGeometry>
        </mxCell>
        <mxCell id="MXuPHkKdwVomBoaFRUYh-14" value="Thiết lập" style="shape=rhombus;perimeter=rhombusPerimeter;whiteSpace=wrap;html=1;align=center;" vertex="1" parent="1">
          <mxGeometry x="680" y="560" width="80" height="40" as="geometry" />
        </mxCell>
        <mxCell id="MXuPHkKdwVomBoaFRUYh-15" value="" style="endArrow=none;html=1;rounded=0;" edge="1" parent="1">
          <mxGeometry relative="1" as="geometry">
            <mxPoint x="719.75" y="560" as="sourcePoint" />
            <mxPoint x="719.75" y="520" as="targetPoint" />
          </mxGeometry>
        </mxCell>
        <mxCell id="MXuPHkKdwVomBoaFRUYh-16" value="" style="endArrow=none;html=1;rounded=0;" edge="1" parent="1">
          <mxGeometry relative="1" as="geometry">
            <mxPoint x="720" y="520" as="sourcePoint" />
            <mxPoint x="660" y="520" as="targetPoint" />
          </mxGeometry>
        </mxCell>
        <mxCell id="MXuPHkKdwVomBoaFRUYh-17" value="" style="endArrow=none;html=1;rounded=0;" edge="1" parent="1">
          <mxGeometry relative="1" as="geometry">
            <mxPoint x="720" y="640" as="sourcePoint" />
            <mxPoint x="720" y="600" as="targetPoint" />
          </mxGeometry>
        </mxCell>
        <mxCell id="MXuPHkKdwVomBoaFRUYh-19" value="" style="endArrow=none;html=1;rounded=0;" edge="1" parent="1">
          <mxGeometry relative="1" as="geometry">
            <mxPoint x="720" y="700" as="sourcePoint" />
            <mxPoint x="719.75" y="680" as="targetPoint" />
          </mxGeometry>
        </mxCell>
        <mxCell id="MXuPHkKdwVomBoaFRUYh-22" value="" style="endArrow=none;html=1;rounded=0;entryX=0;entryY=0.5;entryDx=0;entryDy=0;exitX=0.5;exitY=1;exitDx=0;exitDy=0;" edge="1" parent="1">
          <mxGeometry relative="1" as="geometry">
            <mxPoint x="479.5" y="219.75" as="sourcePoint" />
            <mxPoint x="600" y="219.75" as="targetPoint" />
          </mxGeometry>
        </mxCell>
        <mxCell id="MXuPHkKdwVomBoaFRUYh-29" value="Vay" style="shape=associativeEntity;whiteSpace=wrap;html=1;align=center;" vertex="1" parent="1">
          <mxGeometry x="160" y="760" width="80" height="40" as="geometry" />
        </mxCell>
        <mxCell id="MXuPHkKdwVomBoaFRUYh-30" value="" style="endArrow=none;html=1;rounded=0;" edge="1" parent="1">
          <mxGeometry relative="1" as="geometry">
            <mxPoint x="159.75" y="779.75" as="sourcePoint" />
            <mxPoint x="40" y="780" as="targetPoint" />
          </mxGeometry>
        </mxCell>
        <mxCell id="MXuPHkKdwVomBoaFRUYh-31" value="" style="endArrow=none;html=1;rounded=0;" edge="1" parent="1">
          <mxGeometry relative="1" as="geometry">
            <mxPoint x="40" y="780" as="sourcePoint" />
            <mxPoint x="40" y="220" as="targetPoint" />
          </mxGeometry>
        </mxCell>
        <mxCell id="MXuPHkKdwVomBoaFRUYh-33" value="" style="endArrow=none;html=1;rounded=0;" edge="1" parent="1">
          <mxGeometry relative="1" as="geometry">
            <mxPoint x="10" y="859.75" as="sourcePoint" />
            <mxPoint x="160" y="859.75" as="targetPoint" />
          </mxGeometry>
        </mxCell>
        <mxCell id="MXuPHkKdwVomBoaFRUYh-34" value="Lưu" style="shape=rhombus;perimeter=rhombusPerimeter;whiteSpace=wrap;html=1;align=center;" vertex="1" parent="1">
          <mxGeometry x="160" y="840" width="80" height="40" as="geometry" />
        </mxCell>
        <mxCell id="MXuPHkKdwVomBoaFRUYh-36" value="" style="endArrow=none;html=1;rounded=0;" edge="1" parent="1">
          <mxGeometry relative="1" as="geometry">
            <mxPoint x="10" y="860" as="sourcePoint" />
            <mxPoint x="10" y="120" as="targetPoint" />
          </mxGeometry>
        </mxCell>
        <mxCell id="MXuPHkKdwVomBoaFRUYh-37" value="" style="endArrow=none;html=1;rounded=0;" edge="1" parent="1">
          <mxGeometry relative="1" as="geometry">
            <mxPoint x="399.75" y="40" as="sourcePoint" />
            <mxPoint x="399.75" y="60" as="targetPoint" />
          </mxGeometry>
        </mxCell>
        <mxCell id="MXuPHkKdwVomBoaFRUYh-38" value="" style="verticalLabelPosition=bottom;verticalAlign=top;html=1;shape=mxgraph.basic.acute_triangle;dx=0.5;rotation=-180;" vertex="1" parent="1">
          <mxGeometry x="380" y="60" width="40" height="20" as="geometry" />
        </mxCell>
        <mxCell id="MXuPHkKdwVomBoaFRUYh-39" value="Vay" style="whiteSpace=wrap;html=1;align=center;" vertex="1" parent="1">
          <mxGeometry x="280" y="100" width="80" height="40" as="geometry" />
        </mxCell>
        <mxCell id="MXuPHkKdwVomBoaFRUYh-40" value="Chuyển, gửi" style="whiteSpace=wrap;html=1;align=center;" vertex="1" parent="1">
          <mxGeometry x="440" y="100" width="80" height="40" as="geometry" />
        </mxCell>
        <mxCell id="MXuPHkKdwVomBoaFRUYh-41" value="" style="endArrow=none;html=1;rounded=0;exitX=0;exitY=0;exitDx=20;exitDy=0;exitPerimeter=0;" edge="1" parent="1" source="MXuPHkKdwVomBoaFRUYh-38">
          <mxGeometry relative="1" as="geometry">
            <mxPoint x="319.75" y="80" as="sourcePoint" />
            <mxPoint x="319.75" y="100" as="targetPoint" />
          </mxGeometry>
        </mxCell>
        <mxCell id="MXuPHkKdwVomBoaFRUYh-42" value="" style="endArrow=none;html=1;rounded=0;exitX=0.5;exitY=0;exitDx=0;exitDy=0;" edge="1" parent="1" source="MXuPHkKdwVomBoaFRUYh-40">
          <mxGeometry relative="1" as="geometry">
            <mxPoint x="480.25" y="60" as="sourcePoint" />
            <mxPoint x="400" y="80" as="targetPoint" />
          </mxGeometry>
        </mxCell>
        <mxCell id="MXuPHkKdwVomBoaFRUYh-43" value="" style="endArrow=none;html=1;rounded=0;entryX=0;entryY=0.5;entryDx=0;entryDy=0;" edge="1" parent="1" target="MXuPHkKdwVomBoaFRUYh-39">
          <mxGeometry relative="1" as="geometry">
            <mxPoint x="10" y="120" as="sourcePoint" />
            <mxPoint x="119.75" y="160" as="targetPoint" />
          </mxGeometry>
        </mxCell>
        <mxCell id="MXuPHkKdwVomBoaFRUYh-44" value="" style="endArrow=none;html=1;rounded=0;entryX=0;entryY=0.75;entryDx=0;entryDy=0;exitX=0.5;exitY=0;exitDx=0;exitDy=0;" edge="1" parent="1" source="MXuPHkKdwVomBoaFRUYh-34">
          <mxGeometry relative="1" as="geometry">
            <mxPoint x="200" y="880" as="sourcePoint" />
            <mxPoint x="200" y="800" as="targetPoint" />
          </mxGeometry>
        </mxCell>
        <mxCell id="MXuPHkKdwVomBoaFRUYh-45" value="" style="edgeStyle=entityRelationEdgeStyle;fontSize=12;html=1;endArrow=ERoneToMany;rounded=0;" edge="1" parent="1">
          <mxGeometry width="100" height="100" relative="1" as="geometry">
            <mxPoint x="40" y="779.47" as="sourcePoint" />
            <mxPoint x="160" y="779.47" as="targetPoint" />
            <Array as="points">
              <mxPoint x="100" y="779.47" />
              <mxPoint x="90" y="799.47" />
            </Array>
          </mxGeometry>
        </mxCell>
        <mxCell id="MXuPHkKdwVomBoaFRUYh-46" value="" style="endArrow=none;html=1;rounded=0;" edge="1" parent="1">
          <mxGeometry relative="1" as="geometry">
            <mxPoint x="160" y="219.47000000000003" as="sourcePoint" />
            <mxPoint x="40.25" y="219.72000000000003" as="targetPoint" />
          </mxGeometry>
        </mxCell>
        <mxCell id="MXuPHkKdwVomBoaFRUYh-47" value="" style="fontSize=12;html=1;endArrow=ERoneToMany;rounded=0;exitX=0.5;exitY=1;exitDx=0;exitDy=0;" edge="1" parent="1" source="Ga4jy29pLMReFvIaW5Hz-76">
          <mxGeometry width="100" height="100" relative="1" as="geometry">
            <mxPoint x="200" y="690.5" as="sourcePoint" />
            <mxPoint x="200" y="759.5" as="targetPoint" />
          </mxGeometry>
        </mxCell>
        <mxCell id="MXuPHkKdwVomBoaFRUYh-48" value="" style="fontSize=12;html=1;endArrow=ERoneToMany;rounded=0;entryX=0;entryY=0.5;entryDx=0;entryDy=0;" edge="1" parent="1">
          <mxGeometry width="100" height="100" relative="1" as="geometry">
            <mxPoint x="260" y="20" as="sourcePoint" />
            <mxPoint x="360" y="20" as="targetPoint" />
          </mxGeometry>
        </mxCell>
        <mxCell id="MXuPHkKdwVomBoaFRUYh-49" value="" style="endArrow=none;html=1;rounded=0;entryX=0;entryY=0.5;entryDx=0;entryDy=0;" edge="1" parent="1">
          <mxGeometry relative="1" as="geometry">
            <mxPoint x="260" y="340" as="sourcePoint" />
            <mxPoint x="260" y="19.569999999999993" as="targetPoint" />
          </mxGeometry>
        </mxCell>
        <mxCell id="MXuPHkKdwVomBoaFRUYh-50" value="Quản lý" style="shape=rhombus;perimeter=rhombusPerimeter;whiteSpace=wrap;html=1;align=center;" vertex="1" parent="1">
          <mxGeometry x="360" y="440" width="80" height="40" as="geometry" />
        </mxCell>
        <mxCell id="MXuPHkKdwVomBoaFRUYh-52" value="" style="endArrow=none;html=1;rounded=0;entryX=0.5;entryY=0;entryDx=0;entryDy=0;exitX=0.5;exitY=1;exitDx=0;exitDy=0;" edge="1" parent="1" target="MXuPHkKdwVomBoaFRUYh-50">
          <mxGeometry relative="1" as="geometry">
            <mxPoint x="260" y="339.57" as="sourcePoint" />
            <mxPoint x="380.5" y="339.57" as="targetPoint" />
          </mxGeometry>
        </mxCell>
        <mxCell id="MXuPHkKdwVomBoaFRUYh-54" value="" style="fontSize=12;html=1;endArrow=ERoneToMany;rounded=0;entryX=0;entryY=0.5;entryDx=0;entryDy=0;exitX=0;exitY=0.5;exitDx=0;exitDy=0;" edge="1" parent="1" source="MXuPHkKdwVomBoaFRUYh-50">
          <mxGeometry width="100" height="100" relative="1" as="geometry">
            <mxPoint x="350" y="459.57" as="sourcePoint" />
            <mxPoint x="240" y="459.57" as="targetPoint" />
          </mxGeometry>
        </mxCell>
        <mxCell id="MXuPHkKdwVomBoaFRUYh-55" value="Mã log" style="ellipse;whiteSpace=wrap;html=1;align=center;fontStyle=4;" vertex="1" parent="1">
          <mxGeometry x="500" y="5" width="40" height="30" as="geometry" />
        </mxCell>
        <mxCell id="MXuPHkKdwVomBoaFRUYh-56" value="" style="endArrow=none;html=1;rounded=0;exitX=0;exitY=0.5;exitDx=0;exitDy=0;" edge="1" parent="1" source="MXuPHkKdwVomBoaFRUYh-55">
          <mxGeometry relative="1" as="geometry">
            <mxPoint x="520" y="40" as="sourcePoint" />
            <mxPoint x="440" y="20" as="targetPoint" />
          </mxGeometry>
        </mxCell>
        <mxCell id="MXuPHkKdwVomBoaFRUYh-57" value="Số tiền vay" style="ellipse;whiteSpace=wrap;html=1;align=center;" vertex="1" parent="1">
          <mxGeometry x="270" y="160" width="50" height="40" as="geometry" />
        </mxCell>
        <mxCell id="MXuPHkKdwVomBoaFRUYh-58" value="" style="endArrow=none;html=1;rounded=0;exitX=0.5;exitY=0;exitDx=0;exitDy=0;" edge="1" parent="1" source="MXuPHkKdwVomBoaFRUYh-57">
          <mxGeometry relative="1" as="geometry">
            <mxPoint x="430.25" y="130" as="sourcePoint" />
            <mxPoint x="320" y="140" as="targetPoint" />
          </mxGeometry>
        </mxCell>
      </root>
    </mxGraphModel>
  </diagram>
</mxfile>
